{"glyphs":{":":{"x_min":0,"x_max":200,"ha":200,"o":"m 50 120 l 150 120 l 150 0 l 50 0 z m 50 520 l 150 520 l 150 400 l 50 400 z"},"$":{"x_min":0,"x_max":650,"ha":650,"o":"m 370 664 l 370 423 l 469 423 l 570 317 l 570 110 l 466 0 l 370 0 l 370 -100 l 300 -100 l 300 0 l 164 0 l 82 86 l 143 147 l 204 86 l 300 86 l 300 337 l 202 337 l 100 444 l 100 640 l 204 750 l 300 750 l 300 850 l 370 850 l 370 750 l 486 750 l 568 664 l 507 603 l 447 664 z m 370 337 l 370 86 l 427 86 l 478 139 l 478 288 l 430 337 z m 300 423 l 300 664 l 244 664 l 192 611 l 192 473 l 241 423 z"},"?":{"x_min":0,"x_max":519,"ha":519,"o":"m 143 514 l 60 514 l 60 640 l 164 750 l 355 750 l 459 640 l 459 444 l 248 214 l 188 274 l 367 473 l 367 611 l 315 664 l 203 664 l 143 602 z m 189 120 l 289 120 l 289 0 l 189 0 z"},"<":{"x_min":0,"x_max":650,"ha":650,"o":"m 115 415 l 535 615 l 535 535 l 199 375 l 535 215 l 535 135 l 115 335 z"},"'":{"x_min":0,"x_max":240,"ha":240,"o":"m 70 800 l 170 800 l 170 700 l 140 550 l 100 550 l 70 700 z"},"=":{"x_min":0,"x_max":650,"ha":650,"o":"m 115 535 l 535 535 l 535 455 l 115 455 z m 115 295 l 535 295 l 535 215 l 115 215 z"},"a":{"x_min":0,"x_max":657,"ha":657,"o":"m 430 0 l 430 80 l 496 80 l 453 204 l 203 204 l 160 80 l 227 80 l 227 0 l 15 0 l 15 80 l 68 80 l 237 570 l 195 570 l 195 650 l 462 650 l 462 570 l 419 570 l 588 80 l 642 80 l 642 0 z m 328 567 l 230 284 l 426 284 z"},"L":{"x_min":0,"x_max":556,"ha":556,"o":"m 80 750 l 322 750 l 322 670 l 242 670 l 242 80 l 460 80 l 460 196 l 536 196 l 536 0 l 80 0 l 80 80 l 150 80 l 150 670 l 80 670 z"},"3":{"x_min":0,"x_max":650,"ha":650,"o":"m 232 333 l 232 413 l 390 413 l 438 462 l 438 611 l 386 664 l 233 664 l 173 602 l 173 514 l 90 514 l 90 640 l 194 750 l 426 750 l 530 640 l 530 433 l 479 380 l 549 307 l 549 110 l 445 0 l 193 0 l 89 110 l 89 236 l 172 236 l 172 148 l 233 86 l 406 86 l 457 139 l 457 278 l 403 333 z"},";":{"x_min":0,"x_max":200,"ha":200,"o":"m 50 120 l 150 120 l 150 30 l 90 -130 l 50 -130 z m 50 520 l 150 520 l 150 400 l 50 400 z"},"J":{"x_min":0,"x_max":540,"ha":540,"o":"m 328 670 l 258 670 l 258 750 l 480 750 l 480 670 l 420 670 l 420 110 l 316 0 l 124 0 l 20 110 l 20 286 l 100 286 l 100 151 l 163 86 l 276 86 l 328 139 z"},"V":{"x_min":0,"x_max":687,"ha":687,"o":"m 20 670 l 20 750 l 232 750 l 232 670 l 163 670 l 343 91 l 524 670 l 455 670 l 455 750 l 667 750 l 667 670 l 616 670 l 407 0 l 280 0 l 71 670 z"},"\"":{"x_min":0,"x_max":400,"ha":400,"o":"m 70 800 l 170 800 l 170 700 l 140 550 l 100 550 l 70 700 z m 230 800 l 330 800 l 330 700 l 300 550 l 260 550 l 230 700 z"},"7":{"x_min":0,"x_max":650,"ha":650,"o":"m 159 80 l 234 80 l 461 670 l 170 670 l 170 554 l 90 554 l 90 750 l 556 750 l 556 670 l 329 80 l 411 80 l 411 0 l 159 0 z"},"S":{"x_min":0,"x_max":600,"ha":600,"o":"m 520 514 l 437 514 l 437 602 l 377 664 l 224 664 l 172 611 l 172 473 l 221 423 l 429 423 l 530 317 l 530 110 l 426 0 l 174 0 l 70 110 l 70 236 l 153 236 l 153 148 l 214 86 l 387 86 l 438 139 l 438 288 l 390 337 l 182 337 l 80 444 l 80 640 l 184 750 l 416 750 l 520 640 z"},"}":{"x_min":0,"x_max":352,"ha":352,"o":"m 38 764 l 38 850 l 143 850 l 247 740 l 225 461 l 287 408 l 287 342 l 225 289 l 247 10 l 143 -100 l 38 -100 l 38 -14 l 103 -14 l 155 39 l 133 308 l 206 375 l 133 442 l 155 711 l 103 764 z"},"Z":{"x_min":0,"x_max":596,"ha":596,"o":"m 155 670 l 155 554 l 75 554 l 75 750 l 541 750 l 541 670 l 158 80 l 461 80 l 461 196 l 541 196 l 541 0 l 55 0 l 55 80 l 438 670 z"},"x":{"x_min":0,"x_max":649,"ha":649,"o":"m 242 0 l 30 0 l 30 80 l 88 80 l 272 333 l 98 570 l 40 570 l 40 650 l 252 650 l 252 570 l 201 570 l 330 393 l 458 570 l 407 570 l 407 650 l 619 650 l 619 570 l 561 570 l 382 323 l 560 80 l 619 80 l 619 0 l 407 0 l 407 80 l 457 80 l 323 263 l 191 80 l 242 80 z"},")":{"x_min":0,"x_max":352,"ha":352,"o":"m 30 -100 l 30 -14 l 101 -14 l 172 139 l 172 611 l 100 764 l 30 764 l 30 850 l 160 850 l 264 640 l 264 110 l 160 -100 z"},"&":{"x_min":0,"x_max":674,"ha":674,"o":"m 617 415 l 617 335 l 560 335 l 472 186 l 547 80 l 654 80 l 654 0 l 492 0 l 421 101 l 362 0 l 154 0 l 50 110 l 50 353 l 100 415 l 202 415 l 148 492 l 148 640 l 252 750 l 449 750 l 553 640 l 553 544 l 473 544 l 473 599 l 410 664 l 290 664 l 234 605 l 234 527 l 422 258 l 513 415 z m 136 335 l 136 145 l 194 86 l 322 86 l 372 172 l 258 335 z"},"_":{"x_min":0,"x_max":621,"ha":621,"o":"m 50 0 l 571 0 l 571 -80 l 50 -80 z"},"v":{"x_min":0,"x_max":687,"ha":687,"o":"m 20 570 l 20 650 l 232 650 l 232 570 l 167 570 l 343 79 l 520 570 l 455 570 l 455 650 l 667 650 l 667 570 l 612 570 l 407 0 l 280 0 l 75 570 z"},"O":{"x_min":0,"x_max":650,"ha":650,"o":"m 184 0 l 80 110 l 80 640 l 184 750 l 466 750 l 570 640 l 570 110 l 466 0 z m 223 86 l 426 86 l 478 139 l 478 611 l 427 664 l 224 664 l 172 611 l 172 139 z"},"(":{"x_min":0,"x_max":352,"ha":352,"o":"m 322 850 l 322 764 l 252 764 l 180 611 l 180 139 l 251 -14 l 322 -14 l 322 -100 l 192 -100 l 88 110 l 88 640 l 192 850 z"},"C":{"x_min":0,"x_max":600,"ha":600,"o":"m 460 236 l 540 236 l 540 110 l 436 0 l 184 0 l 80 110 l 80 640 l 184 750 l 436 750 l 540 640 l 540 514 l 460 514 l 460 599 l 397 664 l 224 664 l 172 611 l 172 139 l 223 86 l 396 86 l 460 151 z"},"W":{"x_min":0,"x_max":1026,"ha":1026,"o":"m 20 670 l 20 750 l 232 750 l 232 670 l 158 670 l 303 110 l 448 670 l 405 670 l 405 750 l 621 750 l 621 670 l 577 670 l 722 110 l 867 670 l 794 670 l 794 750 l 1006 750 l 1006 670 l 959 670 l 786 0 l 663 0 l 513 579 l 363 0 l 240 0 l 66 670 z"},"A":{"x_min":0,"x_max":657,"ha":657,"o":"m 195 750 l 462 750 l 462 670 l 416 670 l 592 80 l 642 80 l 642 0 l 430 0 l 430 80 l 500 80 l 454 234 l 203 234 l 157 80 l 227 80 l 227 0 l 15 0 l 15 80 l 65 80 l 241 670 l 195 670 z m 328 655 l 227 314 l 430 314 z"},"f":{"x_min":0,"x_max":596,"ha":596,"o":"m 80 650 l 556 650 l 556 454 l 476 454 l 476 570 l 242 570 l 242 365 l 476 365 l 476 285 l 242 285 l 242 80 l 322 80 l 322 0 l 80 0 l 80 80 l 150 80 l 150 570 l 80 570 z"},"Q":{"x_min":0,"x_max":650,"ha":650,"o":"m 362 0 l 362 -100 l 287 -100 l 287 0 l 184 0 l 80 110 l 80 640 l 184 750 l 466 750 l 570 640 l 570 110 l 466 0 z m 287 86 l 287 236 l 362 236 l 362 86 l 426 86 l 478 139 l 478 611 l 427 664 l 224 664 l 172 611 l 172 139 l 223 86 z"},"w":{"x_min":0,"x_max":1026,"ha":1026,"o":"m 20 570 l 20 650 l 232 650 l 232 570 l 162 570 l 303 95 l 445 570 l 405 570 l 405 650 l 621 650 l 621 570 l 581 570 l 722 95 l 864 570 l 794 570 l 794 650 l 1006 650 l 1006 570 l 956 570 l 786 0 l 663 0 l 513 503 l 363 0 l 240 0 l 70 570 z"},"-":{"x_min":0,"x_max":509,"ha":509,"o":"m 100 415 l 409 415 l 409 335 l 100 335 z"},"E":{"x_min":0,"x_max":636,"ha":636,"o":"m 80 750 l 556 750 l 556 554 l 476 554 l 476 670 l 242 670 l 242 415 l 476 415 l 476 335 l 242 335 l 242 80 l 476 80 l 476 196 l 556 196 l 556 0 l 80 0 l 80 80 l 150 80 l 150 670 l 80 670 z"},"s":{"x_min":0,"x_max":600,"ha":600,"o":"m 520 414 l 437 414 l 437 502 l 377 564 l 224 564 l 172 511 l 172 413 l 221 363 l 429 363 l 530 257 l 530 110 l 426 0 l 174 0 l 70 110 l 70 236 l 153 236 l 153 148 l 214 86 l 387 86 l 438 139 l 438 228 l 390 277 l 182 277 l 80 384 l 80 540 l 184 650 l 416 650 l 520 540 z"},">":{"x_min":0,"x_max":650,"ha":650,"o":"m 115 215 l 451 375 l 115 535 l 115 615 l 535 415 l 535 335 l 115 135 z"},"l":{"x_min":0,"x_max":556,"ha":556,"o":"m 80 650 l 322 650 l 322 570 l 242 570 l 242 80 l 460 80 l 460 196 l 536 196 l 536 0 l 80 0 l 80 80 l 150 80 l 150 570 l 80 570 z"},"8":{"x_min":0,"x_max":650,"ha":650,"o":"m 90 110 l 90 317 l 155 386 l 100 444 l 100 640 l 204 750 l 447 750 l 551 640 l 551 444 l 495 385 l 560 317 l 560 110 l 456 0 l 194 0 z m 420 337 l 230 337 l 182 288 l 182 139 l 234 86 l 417 86 l 468 139 l 468 288 z m 192 473 l 241 423 l 410 423 l 459 473 l 459 611 l 407 664 l 244 664 l 192 611 z"},"\\":{"x_min":0,"x_max":392,"ha":392,"o":"m 82 830 l 387 -80 l 310 -80 l 5 830 z"},"e":{"x_min":0,"x_max":636,"ha":636,"o":"m 80 650 l 556 650 l 556 454 l 476 454 l 476 570 l 242 570 l 242 365 l 476 365 l 476 285 l 242 285 l 242 80 l 476 80 l 476 196 l 556 196 l 556 0 l 80 0 l 80 80 l 150 80 l 150 570 l 80 570 z"},"b":{"x_min":0,"x_max":684,"ha":684,"o":"m 80 650 l 480 650 l 584 540 l 584 400 l 530 343 l 604 266 l 604 110 l 500 0 l 80 0 l 80 80 l 150 80 l 150 570 l 80 570 z m 242 296 l 242 86 l 460 86 l 518 145 l 518 231 l 455 296 z m 242 564 l 242 376 l 440 376 l 498 435 l 498 505 l 441 564 z"},"%":{"x_min":0,"x_max":940,"ha":940,"o":"m 634 0 l 569 69 l 569 383 l 634 452 l 806 452 l 870 383 l 870 69 l 806 0 z m 664 68 l 776 68 l 803 95 l 803 357 l 776 384 l 664 384 l 637 357 l 637 95 z m 135 298 l 70 367 l 70 681 l 135 750 l 307 750 l 371 681 l 371 367 l 307 298 z m 165 366 l 277 366 l 304 393 l 304 655 l 277 682 l 165 682 l 138 655 l 138 393 z m 279 -35 l 584 784 l 661 784 l 356 -35 z"},"m":{"x_min":0,"x_max":946,"ha":946,"o":"m 242 80 l 312 80 l 312 0 l 80 0 l 80 80 l 150 80 l 150 570 l 80 570 l 80 650 l 284 650 l 473 177 l 662 650 l 866 650 l 866 570 l 796 570 l 796 80 l 866 80 l 866 0 l 634 0 l 634 80 l 704 80 l 704 537 l 517 80 l 429 80 l 242 537 z"},"#":{"x_min":0,"x_max":650,"ha":650,"o":"m 324 0 l 378 200 l 175 200 l 121 0 l 44 0 l 98 200 l -1 200 l 18 269 l 117 269 l 175 482 l 76 482 l 95 551 l 194 551 l 249 750 l 326 750 l 271 551 l 474 551 l 529 750 l 606 750 l 551 551 l 651 551 l 632 482 l 532 482 l 474 269 l 574 269 l 555 200 l 455 200 l 401 0 z m 252 482 l 194 269 l 397 269 l 455 482 z"},",":{"x_min":0,"x_max":200,"ha":200,"o":"m 50 120 l 150 120 l 150 30 l 90 -130 l 50 -130 z"},"n":{"x_min":0,"x_max":812,"ha":812,"o":"m 242 80 l 312 80 l 312 0 l 80 0 l 80 80 l 150 80 l 150 570 l 80 570 l 80 650 l 288 650 l 580 98 l 580 570 l 510 570 l 510 650 l 742 650 l 742 570 l 672 570 l 672 0 l 534 0 l 242 551 z"},"h":{"x_min":0,"x_max":792,"ha":792,"o":"m 80 650 l 312 650 l 312 570 l 242 570 l 242 365 l 550 365 l 550 570 l 480 570 l 480 650 l 712 650 l 712 570 l 642 570 l 642 80 l 712 80 l 712 0 l 480 0 l 480 80 l 550 80 l 550 285 l 242 285 l 242 80 l 312 80 l 312 0 l 80 0 l 80 80 l 150 80 l 150 570 l 80 570 z"},"z":{"x_min":0,"x_max":596,"ha":596,"o":"m 155 570 l 155 454 l 75 454 l 75 650 l 541 650 l 541 570 l 159 80 l 461 80 l 461 196 l 541 196 l 541 0 l 55 0 l 55 80 l 438 570 z"},"B":{"x_min":0,"x_max":684,"ha":684,"o":"m 80 750 l 480 750 l 584 640 l 584 460 l 530 403 l 604 326 l 604 110 l 500 0 l 80 0 l 80 80 l 150 80 l 150 670 l 80 670 z m 242 356 l 242 86 l 460 86 l 518 145 l 518 291 l 455 356 z m 242 664 l 242 436 l 440 436 l 498 495 l 498 605 l 441 664 z"},"K":{"x_min":0,"x_max":669,"ha":669,"o":"m 649 0 l 437 0 l 437 80 l 495 80 l 333 335 l 242 335 l 242 80 l 312 80 l 312 0 l 80 0 l 80 80 l 150 80 l 150 670 l 80 670 l 80 750 l 312 750 l 312 670 l 242 670 l 242 415 l 326 415 l 486 670 l 427 670 l 427 750 l 639 750 l 639 670 l 589 670 l 407 381 l 598 80 l 649 80 z"},"R":{"x_min":0,"x_max":699,"ha":699,"o":"m 80 750 l 480 750 l 584 640 l 584 420 l 480 310 l 587 80 l 639 80 l 639 0 l 451 0 l 451 80 l 490 80 l 383 310 l 242 310 l 242 80 l 302 80 l 302 0 l 80 0 l 80 80 l 150 80 l 150 670 l 80 670 z m 242 664 l 242 396 l 440 396 l 498 455 l 498 605 l 441 664 z"},"T":{"x_min":0,"x_max":580,"ha":580,"o":"m 436 0 l 144 0 l 144 80 l 244 80 l 244 670 l 96 670 l 96 554 l 20 554 l 20 750 l 560 750 l 560 554 l 484 554 l 484 670 l 336 670 l 336 80 l 436 80 z"},"P":{"x_min":0,"x_max":624,"ha":624,"o":"m 80 750 l 480 750 l 584 640 l 584 410 l 480 300 l 242 300 l 242 80 l 322 80 l 322 0 l 80 0 l 80 80 l 150 80 l 150 670 l 80 670 z m 242 664 l 242 386 l 440 386 l 498 445 l 498 605 l 441 664 z"},"|":{"x_min":0,"x_max":317,"ha":317,"o":"m 120 -80 l 120 830 l 197 830 l 197 -80 z"},"t":{"x_min":0,"x_max":580,"ha":580,"o":"m 436 0 l 144 0 l 144 80 l 244 80 l 244 570 l 106 570 l 106 454 l 30 454 l 30 650 l 550 650 l 550 454 l 474 454 l 474 570 l 336 570 l 336 80 l 436 80 z"},"M":{"x_min":0,"x_max":946,"ha":946,"o":"m 80 750 l 284 750 l 473 194 l 662 750 l 866 750 l 866 670 l 796 670 l 796 80 l 866 80 l 866 0 l 634 0 l 634 80 l 704 80 l 704 617 l 517 80 l 429 80 l 242 617 l 242 80 l 312 80 l 312 0 l 80 0 l 80 80 l 150 80 l 150 670 l 80 670 z"},"g":{"x_min":0,"x_max":620,"ha":620,"o":"m 470 255 l 332 255 l 332 335 l 550 335 l 550 110 l 446 0 l 184 0 l 80 110 l 80 540 l 184 650 l 446 650 l 550 540 l 550 414 l 470 414 l 470 499 l 407 564 l 224 564 l 172 511 l 172 139 l 223 86 l 406 86 l 470 151 z"},"j":{"x_min":0,"x_max":540,"ha":540,"o":"m 328 570 l 258 570 l 258 650 l 480 650 l 480 570 l 420 570 l 420 110 l 316 0 l 124 0 l 20 110 l 20 286 l 100 286 l 100 151 l 163 86 l 276 86 l 328 139 z"},"i":{"x_min":0,"x_max":392,"ha":392,"o":"m 70 80 l 150 80 l 150 570 l 70 570 l 70 650 l 322 650 l 322 570 l 242 570 l 242 80 l 322 80 l 322 0 l 70 0 z"},"y":{"x_min":0,"x_max":607,"ha":607,"o":"m 440 0 l 168 0 l 168 80 l 258 80 l 258 204 l 84 570 l 20 570 l 20 650 l 232 650 l 232 570 l 172 570 l 303 293 l 435 570 l 375 570 l 375 650 l 587 650 l 587 570 l 523 570 l 350 206 l 350 80 l 440 80 z"},"@":{"x_min":0,"x_max":950,"ha":950,"o":"m 769 -20 l 769 -100 l 204 -100 l 100 10 l 100 640 l 204 750 l 746 750 l 850 640 l 850 304 l 746 194 l 682 194 l 728 50 l 636 50 l 590 194 l 390 194 l 345 50 l 253 50 l 427 600 l 554 600 l 657 274 l 711 274 l 770 335 l 770 608 l 711 670 l 239 670 l 180 609 l 180 41 l 239 -20 z m 490 510 l 416 274 l 565 274 z"},".":{"x_min":0,"x_max":200,"ha":200,"o":"m 50 120 l 150 120 l 150 0 l 50 0 z"},"p":{"x_min":0,"x_max":624,"ha":624,"o":"m 80 650 l 480 650 l 584 540 l 584 330 l 480 220 l 242 220 l 242 80 l 322 80 l 322 0 l 80 0 l 80 80 l 150 80 l 150 570 l 80 570 z m 242 564 l 242 306 l 440 306 l 498 365 l 498 505 l 441 564 z"},"X":{"x_min":0,"x_max":649,"ha":649,"o":"m 242 0 l 30 0 l 30 80 l 80 80 l 271 386 l 91 670 l 40 670 l 40 750 l 252 750 l 252 670 l 194 670 l 326 462 l 456 670 l 397 670 l 397 750 l 609 750 l 609 670 l 559 670 l 378 380 l 568 80 l 619 80 l 619 0 l 407 0 l 407 80 l 465 80 l 323 304 l 183 80 l 242 80 z"},"*":{"x_min":0,"x_max":467,"ha":467,"o":"m 194 800 l 274 800 l 274 710 l 258 643 l 318 679 l 403 706 l 427 630 l 343 603 l 274 596 l 326 551 l 379 478 l 314 432 l 262 503 l 234 567 l 207 504 l 154 431 l 90 478 l 142 550 l 194 596 l 126 602 l 40 630 l 65 706 l 150 678 l 209 643 l 194 710 z"},"Y":{"x_min":0,"x_max":607,"ha":607,"o":"m 440 0 l 168 0 l 168 80 l 258 80 l 258 234 l 70 670 l 20 670 l 20 750 l 232 750 l 232 670 l 158 670 l 303 333 l 448 670 l 375 670 l 375 750 l 587 750 l 587 670 l 536 670 l 350 237 l 350 80 l 440 80 z"},"c":{"x_min":0,"x_max":600,"ha":600,"o":"m 460 236 l 540 236 l 540 110 l 436 0 l 184 0 l 80 110 l 80 540 l 184 650 l 436 650 l 540 540 l 540 414 l 460 414 l 460 499 l 397 564 l 224 564 l 172 511 l 172 139 l 223 86 l 396 86 l 460 151 z"},"!":{"x_min":0,"x_max":260,"ha":260,"o":"m 80 120 l 180 120 l 180 0 l 80 0 z m 80 750 l 180 750 l 180 470 l 150 220 l 110 220 l 80 470 z"},"/":{"x_min":0,"x_max":392,"ha":392,"o":"m 5 -80 l 310 830 l 387 830 l 82 -80 z"},"[":{"x_min":0,"x_max":352,"ha":352,"o":"m 120 -100 l 120 850 l 322 850 l 322 790 l 212 770 l 212 -20 l 322 -40 l 322 -100 z"},"6":{"x_min":0,"x_max":650,"ha":650,"o":"m 100 110 l 100 640 l 204 750 l 436 750 l 540 640 l 540 514 l 457 514 l 457 602 l 397 664 l 244 664 l 187 606 l 187 433 l 459 433 l 560 327 l 560 110 l 456 0 l 204 0 z m 187 353 l 187 144 l 244 86 l 417 86 l 468 139 l 468 298 l 414 353 z"},"r":{"x_min":0,"x_max":699,"ha":699,"o":"m 80 650 l 480 650 l 584 540 l 584 340 l 483 234 l 576 80 l 629 80 l 629 0 l 451 0 l 451 80 l 479 80 l 389 230 l 242 230 l 242 80 l 302 80 l 302 0 l 80 0 l 80 80 l 150 80 l 150 570 l 80 570 z m 242 564 l 242 316 l 440 316 l 498 375 l 498 505 l 441 564 z"},"2":{"x_min":0,"x_max":650,"ha":650,"o":"m 545 0 l 85 0 l 85 80 l 438 473 l 438 611 l 386 664 l 233 664 l 173 602 l 173 514 l 90 514 l 90 640 l 194 750 l 426 750 l 530 640 l 530 444 l 197 80 l 465 80 l 465 196 l 545 196 z"},"{":{"x_min":0,"x_max":352,"ha":352,"o":"m 314 -14 l 314 -100 l 209 -100 l 105 10 l 127 289 l 65 342 l 65 408 l 127 461 l 105 740 l 209 850 l 314 850 l 314 764 l 249 764 l 197 711 l 219 442 l 146 375 l 219 308 l 197 39 l 249 -14 z"},"9":{"x_min":0,"x_max":650,"ha":650,"o":"m 100 236 l 183 236 l 183 148 l 243 86 l 406 86 l 463 144 l 463 317 l 201 317 l 100 423 l 100 640 l 204 750 l 446 750 l 550 640 l 550 110 l 446 0 l 204 0 l 100 110 z m 463 397 l 463 606 l 406 664 l 243 664 l 192 611 l 192 452 l 246 397 z"}," ":{"x_min":0,"x_max":350,"ha":350,"o":""},"I":{"x_min":0,"x_max":392,"ha":392,"o":"m 70 80 l 150 80 l 150 670 l 70 670 l 70 750 l 322 750 l 322 670 l 242 670 l 242 80 l 322 80 l 322 0 l 70 0 z"},"H":{"x_min":0,"x_max":792,"ha":792,"o":"m 80 750 l 312 750 l 312 670 l 242 670 l 242 415 l 550 415 l 550 670 l 480 670 l 480 750 l 712 750 l 712 670 l 642 670 l 642 80 l 712 80 l 712 0 l 480 0 l 480 80 l 550 80 l 550 335 l 242 335 l 242 80 l 312 80 l 312 0 l 80 0 l 80 80 l 150 80 l 150 670 l 80 670 z"},"4":{"x_min":0,"x_max":650,"ha":650,"o":"m 310 80 l 390 80 l 390 187 l 40 187 l 40 267 l 332 750 l 482 750 l 482 267 l 545 267 l 545 187 l 482 187 l 482 80 l 552 80 l 552 0 l 310 0 z m 390 267 l 390 679 l 141 267 z"},"~":{"x_min":0,"x_max":650,"ha":650,"o":"m 389 281 l 241 367 l 196 355 l 160 292 l 85 335 l 141 433 l 261 461 l 409 375 l 454 387 l 490 450 l 565 407 l 509 309 z"},"D":{"x_min":0,"x_max":690,"ha":690,"o":"m 80 750 l 506 750 l 610 640 l 610 110 l 506 0 l 80 0 l 80 80 l 150 80 l 150 670 l 80 670 z m 242 86 l 466 86 l 518 139 l 518 611 l 467 664 l 242 664 z"},"^":{"x_min":0,"x_max":650,"ha":650,"o":"m 365 750 l 505 499 l 425 499 l 325 678 l 225 499 l 145 499 l 285 750 z"},"0":{"x_min":0,"x_max":650,"ha":650,"o":"m 184 0 l 80 110 l 80 640 l 184 750 l 466 750 l 570 640 l 570 110 l 466 0 z m 223 86 l 426 86 l 483 144 l 483 606 l 427 664 l 224 664 l 167 606 l 167 144 z m 275 435 l 375 435 l 375 315 l 275 315 z"},"F":{"x_min":0,"x_max":596,"ha":596,"o":"m 80 750 l 556 750 l 556 554 l 476 554 l 476 670 l 242 670 l 242 415 l 476 415 l 476 335 l 242 335 l 242 80 l 322 80 l 322 0 l 80 0 l 80 80 l 150 80 l 150 670 l 80 670 z"},"`":{"x_min":0,"x_max":423,"ha":423,"o":"m 130 743 l 159 826 l 353 749 l 340 711 l 208 711 z"},"k":{"x_min":0,"x_max":669,"ha":669,"o":"m 649 0 l 437 0 l 437 80 l 488 80 l 341 285 l 242 285 l 242 80 l 312 80 l 312 0 l 80 0 l 80 80 l 150 80 l 150 570 l 80 570 l 80 650 l 312 650 l 312 570 l 242 570 l 242 365 l 330 365 l 478 570 l 427 570 l 427 650 l 639 650 l 639 570 l 581 570 l 410 332 l 591 80 l 649 80 z"},"u":{"x_min":0,"x_max":740,"ha":740,"o":"m 448 650 l 670 650 l 670 570 l 610 570 l 610 110 l 506 0 l 234 0 l 130 110 l 130 570 l 70 570 l 70 650 l 292 650 l 292 570 l 222 570 l 222 139 l 273 86 l 466 86 l 518 139 l 518 570 l 448 570 z"},"]":{"x_min":0,"x_max":352,"ha":352,"o":"m 30 850 l 232 850 l 232 -100 l 30 -100 l 30 -40 l 140 -20 l 140 770 l 30 790 z"},"U":{"x_min":0,"x_max":740,"ha":740,"o":"m 448 750 l 670 750 l 670 670 l 610 670 l 610 110 l 506 0 l 234 0 l 130 110 l 130 670 l 70 670 l 70 750 l 292 750 l 292 670 l 222 670 l 222 139 l 273 86 l 466 86 l 518 139 l 518 670 l 448 670 z"},"o":{"x_min":0,"x_max":650,"ha":650,"o":"m 184 0 l 80 110 l 80 540 l 184 650 l 466 650 l 570 540 l 570 110 l 466 0 z m 223 86 l 426 86 l 478 139 l 478 511 l 427 564 l 224 564 l 172 511 l 172 139 z"},"N":{"x_min":0,"x_max":812,"ha":812,"o":"m 242 80 l 312 80 l 312 0 l 80 0 l 80 80 l 150 80 l 150 670 l 80 670 l 80 750 l 288 750 l 580 113 l 580 670 l 510 670 l 510 750 l 742 750 l 742 670 l 672 670 l 672 0 l 534 0 l 242 636 z"},"+":{"x_min":0,"x_max":650,"ha":650,"o":"m 285 165 l 285 335 l 115 335 l 115 415 l 285 415 l 285 585 l 365 585 l 365 415 l 535 415 l 535 335 l 365 335 l 365 165 z"},"G":{"x_min":0,"x_max":620,"ha":620,"o":"m 470 305 l 332 305 l 332 385 l 550 385 l 550 110 l 446 0 l 184 0 l 80 110 l 80 640 l 184 750 l 446 750 l 550 640 l 550 514 l 470 514 l 470 599 l 407 664 l 224 664 l 172 611 l 172 139 l 223 86 l 406 86 l 470 151 z"},"q":{"x_min":0,"x_max":650,"ha":650,"o":"m 362 0 l 362 -100 l 287 -100 l 287 0 l 184 0 l 80 110 l 80 540 l 184 650 l 466 650 l 570 540 l 570 110 l 466 0 z m 287 86 l 287 206 l 362 206 l 362 86 l 426 86 l 478 139 l 478 511 l 427 564 l 224 564 l 172 511 l 172 139 l 223 86 z"},"d":{"x_min":0,"x_max":690,"ha":690,"o":"m 80 650 l 506 650 l 610 540 l 610 110 l 506 0 l 80 0 l 80 80 l 150 80 l 150 570 l 80 570 z m 242 86 l 466 86 l 518 139 l 518 511 l 467 564 l 242 564 z"},"1":{"x_min":0,"x_max":650,"ha":650,"o":"m 401 750 l 401 80 l 551 80 l 551 0 l 159 0 l 159 80 l 309 80 l 309 653 l 146 572 l 107 650 l 309 750 z"},"5":{"x_min":0,"x_max":650,"ha":650,"o":"m 459 554 l 459 670 l 199 670 l 199 453 l 458 453 l 559 347 l 559 110 l 455 0 l 203 0 l 99 110 l 99 236 l 182 236 l 182 148 l 243 86 l 416 86 l 467 139 l 467 318 l 413 373 l 119 373 l 119 750 l 539 750 l 539 554 z"}}}
